<?xml version="1.0" standalone="no"?><!DOCTYPE svg PUBLIC "-//W3C//DTD SVG 1.1//EN" "http://www.w3.org/Graphics/SVG/1.1/DTD/svg11.dtd"><svg t="1553737154509" class="icon" style="" viewBox="0 0 1024 1024" version="1.1" xmlns="http://www.w3.org/2000/svg" p-id="18826" xmlns:xlink="http://www.w3.org/1999/xlink" width="32" height="32"><defs><style type="text/css"></style></defs><path d="M813.952 203.776c0.128-25.28-13.824-55.104-33.152-74.432l-36.224-36.16C725.248 73.728 699.584 63.872 674.304 64c-25.344 0-51.136 9.728-70.4 29.12L144.832 552.064C131.2 565.824 80 758.848 76.672 763.392L64 814.144l50.688-12.736c4.416-3.328 197.504-54.592 211.2-68.224l459.072-459.072C804.16 254.72 814.016 229.12 813.952 203.776zM281.408 688.768c0.768 4.032-150.272 58.048-150.656 57.664C131.2 746.816 185.344 595.84 189.312 596.416l349.12-349.056 92.096 92.16L281.408 688.768zM740.416 229.696l-65.344 65.408-92.096-92.16 65.344-65.408c7.296-7.168 16.448-10.688 26.048-10.752 9.344 0.128 18.496 3.584 25.792 10.752l36.16 36.224c7.168 7.296 14.848 20.544 14.848 30.016C751.168 213.312 747.712 222.528 740.416 229.696zM960 736c0 17.664-14.336 32-32 32L768 768l0 160c0 17.664-12.736 32-30.4 32C719.872 960 704 945.664 704 928L704 768 547.2 768c-16.704 0-30.016-12.928-31.424-29.248C517.184 708.8 530.496 704 547.2 704L704 704 704 544C704 526.336 719.872 512 737.6 512 755.264 512 768 526.336 768 544L768 704l160 0C945.664 704 960 718.336 960 736zM515.2 736c0 1.024 0.448 1.792 0.576 2.752C515.648 740.48 515.2 741.44 515.2 743.36L515.2 736z" p-id="18827" fill="#ffffff"></path></svg>