<?xml version="1.0" standalone="no"?><!DOCTYPE svg PUBLIC "-//W3C//DTD SVG 1.1//EN" "http://www.w3.org/Graphics/SVG/1.1/DTD/svg11.dtd"><svg t="1553482081264" class="icon" style="" viewBox="0 0 1024 1024" version="1.1" xmlns="http://www.w3.org/2000/svg" p-id="4794" xmlns:xlink="http://www.w3.org/1999/xlink" width="32" height="32"><defs><style type="text/css"></style></defs><path d="M896 256h-768a25.6 25.6 0 0 1 0-51.2h768a25.6 25.6 0 0 1 0 51.2zM896 409.6h-409.6a25.6 25.6 0 0 1 0-51.2h409.6a25.6 25.6 0 0 1 0 51.2zM896 563.2h-409.6a25.6 25.6 0 0 1 0-51.2h409.6a25.6 25.6 0 0 1 0 51.2zM896 716.8h-409.6a25.6 25.6 0 0 1 0-51.2h409.6a25.6 25.6 0 0 1 0 51.2zM896 870.4h-768a25.6 25.6 0 0 1 0-51.2h768a25.6 25.6 0 0 1 0 51.2zM128 716.8a25.6 25.6 0 0 1-25.6-25.6v-307.2a25.6 25.6 0 0 1 40.96-20.48l204.8 153.6a25.6 25.6 0 0 1 0 40.96l-204.8 153.6a25.6 25.6 0 0 1-15.36 5.12zM153.6 435.2v204.8l136.5504-102.4L153.6 435.2z" fill="#8a8a8a" p-id="4795"></path></svg>