<?xml version="1.0" standalone="no"?><!DOCTYPE svg PUBLIC "-//W3C//DTD SVG 1.1//EN" "http://www.w3.org/Graphics/SVG/1.1/DTD/svg11.dtd"><svg t="1556529452006" class="icon" style="" viewBox="0 0 1024 1024" version="1.1" xmlns="http://www.w3.org/2000/svg" p-id="2171" xmlns:xlink="http://www.w3.org/1999/xlink" width="32" height="32"><defs><style type="text/css"></style></defs><path d="M512 170.666667V42.666667L341.333333 213.333333l170.666667 170.666667V256c140.8 0 256 115.2 256 256 0 42.666667-12.8 85.333333-29.866667 119.466667l64 64C832 640 853.333333 580.266667 853.333333 512c0-187.733333-153.6-341.333333-341.333333-341.333333z m0 597.333333c-140.8 0-256-115.2-256-256 0-42.666667 12.8-85.333333 29.866667-119.466667L221.866667 328.533333C192 384 170.666667 443.733333 170.666667 512c0 187.733333 153.6 341.333333 341.333333 341.333333v128l170.666667-170.666666-170.666667-170.666667v128z" p-id="2172" fill="#bfbfbf"></path></svg>